<?xml version="1.0" encoding="utf-8"?>
<!-- Generator: Adobe Illustrator 16.0.0, SVG Export Plug-In . SVG Version: 6.00 Build 0)  -->
<!DOCTYPE svg PUBLIC "-//W3C//DTD SVG 1.1//EN" "http://www.w3.org/Graphics/SVG/1.1/DTD/svg11.dtd">
<svg version="1.1" id="BasicLogo_xA0_Image_1_" xmlns="http://www.w3.org/2000/svg" xmlns:xlink="http://www.w3.org/1999/xlink"
	 x="0px" y="0px" width="1432.511px" height="262.16px" viewBox="0 0 1432.511 262.16" enable-background="new 0 0 1432.511 262.16"
	 xml:space="preserve">
<g>
	<path fill="#ED9E35" d="M1084.011,131.022c-7.1,10.234-13.625,19.458-19.916,28.837c-1.578,2.354-3.596,1.983-5.689,1.984
		c-30.662,0.016-61.324,0.1-91.984-0.09c-4.318-0.027-5.629,0.956-5.555,5.459c0.287,17.492,0.201,34.993,0.045,52.488
		c-0.031,3.408,0.791,4.564,4.393,4.542c24.496-0.154,48.992-0.14,73.486-0.013c3.275,0.018,4.178-0.938,4.199-4.195
		c0.094-13.635,0.203-13.635-13.418-13.635c-12.164,0-24.328,0.019-36.492-0.027c-1.242-0.004-2.926,0.654-3.625-0.768
		c-0.703-1.426,0.879-2.373,1.58-3.401c5.158-7.556,10.484-14.995,15.557-22.606c1.381-2.074,2.893-2.812,5.307-2.805
		c22.662,0.068,45.324,0.093,67.988-0.02c3.16-0.016,4.35,0.773,4.311,4.148c-0.184,15.328,0.064,30.663-0.184,45.99
		c-0.299,18.459-9.402,28.408-27.832,28.875c-36.313,0.917-72.645,0.604-108.969,0.115c-6.578-0.088-12.496-1.75-15.385-8.635
		c-0.252-0.604-0.646-1.187-1.1-1.658c-10.373-10.824-12.982-23.721-12.018-38.408c1.025-15.6,0.16-31.313,0.385-46.975
		c0.242-16.896,7.705-25.396,24.117-28.392c3.979-0.726,7.941-0.848,11.928-0.85c32.828-0.016,65.656,0.018,98.482,0.034
		C1063.416,131.026,1073.21,131.022,1084.011,131.022z"/>
	<path fill="#ED9E35" d="M712.611,223.766c-7.649,11.03-14.567,20.941-21.392,30.916c-1.086,1.588-2.514,1.359-3.962,1.36
		c-39.479,0.012-78.957-0.013-118.436,0.058c-2.717,0.006-3.785-0.637-3.778-3.592c0.086-39.312,0.087-78.624-0.001-117.936
		c-0.007-2.977,1.097-3.573,3.794-3.569c41.812,0.067,83.622,0.08,125.433-0.016c3.24-0.007,3.879,1.265,3.824,4.13
		c-0.146,7.658-0.275,15.333,0.042,22.982c0.17,4.08-0.915,5.357-5.175,5.324c-26.483-0.199-52.972,0.014-79.456-0.21
		c-4.6-0.038-5.919,1.194-5.765,5.786c0.338,10.031,0.091,10.04,10.307,10.04c15.325,0,30.652,0.149,45.974-0.103
		c4.058-0.065,5.09,1.193,4.904,5.045c-0.304,6.314-0.24,12.66-0.017,18.983c0.115,3.248-0.87,4.261-4.19,4.231
		c-17.322-0.157-34.648,0.048-51.97-0.165c-3.94-0.048-5.054,1.041-4.994,4.985c0.182,11.743,0.007,11.746,11.672,11.746
		c28.817,0,57.636,0,86.453,0C707.69,223.766,709.501,223.766,712.611,223.766z"/>
	<path fill="#ED9E35" d="M1362.115,256.043c-20.83,0-41.662-0.1-62.49,0.091c-3.775,0.034-4.715-1.017-4.701-4.737
		c0.137-38.66,0.129-77.321,0.008-115.982c-0.012-3.528,1.002-4.446,4.477-4.437c41.66,0.113,83.32,0.108,124.979,0.005
		c3.252-0.009,4.363,0.838,4.266,4.167c-0.221,7.492-0.264,15.002,0.016,22.49c0.135,3.649-1.199,4.371-4.561,4.356
		c-28.162-0.121-56.324,0.017-84.486-0.159c-4.32-0.025-6.107,0.745-5.867,5.598c0.432,8.721,0.107,8.735,8.623,8.735
		c13.998,0,27.996,0.095,41.994-0.069c3.316-0.037,4.754,0.61,4.604,4.323c-0.293,7.153-0.262,14.333-0.01,21.49
		c0.123,3.492-0.945,4.524-4.459,4.481c-15.162-0.182-30.33,0.078-45.49-0.178c-4.199-0.07-5.303,1.16-5.232,5.277
		c0.215,12.665,0.045,12.668,12.668,12.668c26.162,0,52.326,0.078,78.486-0.085c3.848-0.024,5.217,0.856,5.031,4.918
		c-0.342,7.483-0.324,15.003-0.006,22.487c0.168,3.926-1.266,4.664-4.857,4.637C1404.109,255.963,1383.113,256.043,1362.115,256.043
		z"/>
	<path fill="#ED9E35" d="M1189.353,256.044c-14.99,0.005-29.982-0.046-44.975,0.034c-4.691,0.023-9.334-0.395-13.865-1.438
		c-12.805-2.947-19.4-11.811-19.551-26.918c-0.227-22.818-0.094-45.642-0.109-68.462c-0.006-7.995,0.133-15.993-0.064-23.985
		c-0.08-3.207,0.813-4.364,4.172-4.3c10.158,0.197,20.328,0.265,30.48-0.025c3.984-0.113,4.605,1.394,4.59,4.916
		c-0.129,27.485,0.02,54.97-0.168,82.454c-0.029,4.385,0.865,5.902,5.635,5.845c22.65-0.278,45.307-0.222,67.959-0.033
		c4.047,0.033,5.354-0.911,5.324-5.168c-0.195-27.649-0.033-55.302-0.182-82.953c-0.02-3.776,0.781-5.193,4.879-5.065
		c9.986,0.312,19.99,0.226,29.98,0.032c3.381-0.065,4.607,0.775,4.59,4.401c-0.146,30.314,0.053,60.635-0.164,90.949
		c-0.141,19.74-9.268,28.779-29.061,29.604c-0.832,0.034-1.664,0.104-2.496,0.104
		C1220.669,256.042,1205.013,256.041,1189.353,256.044z"/>
	<path fill="#ED9E35" d="M714.048,256.053c9.903-14.686,19.278-28.563,28.627-42.461c17.633-26.214,35.305-52.402,52.803-78.708
		c1.904-2.86,3.869-4.005,7.268-3.907c7.992,0.229,15.994,0.133,23.99,0.037c2.34-0.027,3.902,0.553,5.291,2.679
		c26.176,40.094,52.441,80.127,78.678,120.182c0.264,0.402,0.389,0.896,0.604,1.408c-0.961,1.413-2.416,0.728-3.592,0.732
		c-12.996,0.06-25.992-0.072-38.984,0.118c-3.078,0.046-4.775-1.028-6.369-3.53c-15.457-24.252-31.025-48.434-46.553-72.641
		c-3.215-5.014-3.199-5.027-6.529,0.113c-15.637,24.139-31.313,48.252-46.842,72.459c-1.621,2.525-3.248,3.631-6.326,3.592
		C742.46,255.956,728.804,256.053,714.048,256.053z"/>
	<path fill="#ED9E35" d="M479.425,256.093c-20.479,0-40.958-0.091-61.435,0.083c-3.675,0.031-4.811-0.863-4.795-4.685
		c0.143-38.626,0.128-77.252,0.016-115.878c-0.01-3.413,0.788-4.607,4.387-4.522c10.15,0.24,20.314,0.254,30.464-0.003
		c3.848-0.098,5.063,0.864,5.034,4.908c-0.188,27.304,0.075,54.609-0.243,81.912c-0.063,5.449,1.66,6.41,6.63,6.365
		c26.638-0.234,53.278,0.035,79.914-0.24c5.017-0.053,6.165,1.476,5.9,6.146c-0.396,6.971-0.312,13.987-0.02,20.969
		c0.159,3.851-0.887,5.082-4.917,5.041C520.05,255.979,499.737,256.093,479.425,256.093z"/>
	<path fill="#DDDDDD" stroke="#DDDDDD" stroke-miterlimit="10" d="M932.58,47.678c-2.6,5.706-5.184,11.344-7.736,16.995
		c-3.205,7.085-6.502,14.131-9.508,21.299c-1,2.383-2.254,3.28-4.807,3.157c-4.982-0.239-10.963,1.462-14.678-0.749
		c-3.389-2.018-4.398-8.117-6.334-12.472c-9.74-21.919-19.453-43.851-29.121-65.802c-0.646-1.469-1.75-2.849-1.496-4.969
		c8.926,0,17.875,0.074,26.822-0.045c2.609-0.035,2.787,1.868,3.461,3.464c5.396,12.762,10.771,25.532,16.578,39.306
		c2.988-6.637,5.627-12.428,8.205-18.247c3.148-7.105,6.352-14.189,9.301-21.376c0.979-2.389,2.26-3.264,4.814-3.154
		c5.15,0.222,11.174-1.489,15.238,0.645c4.082,2.143,4.668,8.725,6.76,13.372c4.189,9.315,8.307,18.664,12.686,28.522
		c2.48-2.588,3.055-5.527,4.166-8.091c4.471-10.317,8.842-20.68,13.037-31.111c1.021-2.54,2.258-3.443,5.039-3.361
		c7.631,0.225,15.273,0.077,23.57,0.077c-3.908,8.921-7.617,17.37-11.313,25.825c-7.883,18.039-15.822,36.053-23.572,54.149
		c-1.297,3.026-3.047,3.634-6.225,4.156c-11.807,1.935-18.492-2.105-21.898-14.017c-2.656-9.29-7.695-17.899-11.699-26.799
		C933.771,48.227,933.373,48.139,932.58,47.678z"/>
	<path fill="#DDDDDD" stroke="#DDDDDD" stroke-miterlimit="10" d="M434.278,88.98c7.215-7.164,13.634-13.436,19.913-19.845
		c1.569-1.604,3.231-1.97,5.33-1.956c10.824,0.072,21.651-0.074,32.474,0.102c3.064,0.05,3.962-0.805,3.907-3.908
		c-0.192-10.821-0.189-21.649-0.002-32.471c0.054-3.113-0.879-3.931-3.936-3.902c-15.486,0.147-30.977,0.197-46.461-0.025
		c-3.762-0.055-4.312,1.34-4.26,4.609c0.178,11.155-0.022,22.315,0.129,33.471c0.04,2.897-0.777,4.999-2.888,6.978
		c-4.127,3.87-8.177,7.847-11.964,12.044c-2.048,2.269-3.614,2.144-5.887,0.514c-4.972-3.565-7.493-8.399-7.535-14.388
		c-0.106-15.32-0.103-30.642-0.012-45.963c0.054-9.083,5.778-15.904,14.967-17.958c2.747-0.614,5.597-1.063,8.4-1.073
		c21.316-0.091,42.632-0.099,63.948-0.029c6.392,0.021,11.005,2.189,15.151,8.075c6.354,9.019,9.555,18.048,8.59,29.064
		c-0.723,8.264-0.531,16.663-0.057,24.962c0.832,14.5-9.41,21.198-19.742,21.494C481.428,89.434,458.476,88.98,434.278,88.98z"/>
	<path fill="#DDDDDD" stroke="#DDDDDD" stroke-miterlimit="10" d="M830.869,57.546c12.381,10.81,23.748,20.735,35.189,30.726
		c-1.279,1.45-2.859,0.742-4.213,0.769c-4.996,0.1-10.107-0.636-14.973,0.168c-13.838,2.288-24.273-2.884-33.297-12.985
		c-4.631-5.186-10.086-9.723-15.588-14.016c-3.941-3.073-5.342-6.464-5.152-11.397c0.373-9.785,0.109-9.795,9.943-9.795
		c5.998,0,12-0.139,17.992,0.058c3.047,0.101,4.352-0.479,4.338-4c-0.041-10.686,0.131-10.687-10.66-10.687
		c-10.164,0-20.334,0.188-30.49-0.095c-3.9-0.109-4.688,1.226-4.652,4.839c0.176,17.66-0.084,35.326,0.197,52.983
		c0.068,4.318-1.219,5.277-5.256,5.06c-6.479-0.35-12.998-0.278-19.486-0.016c-3.189,0.13-3.824-0.932-3.811-3.933
		c0.121-25.493,0.107-50.987,0.014-76.479c-0.01-2.702,0.541-3.692,3.496-3.678c25.492,0.124,50.986,0.05,76.479,0.121
		c3.654,0.011,7.293,0.627,10.73,1.972c6.236,2.441,10.314,6.741,10.578,13.685c0.275,7.317,0.512,14.667,0.141,21.971
		c-0.375,7.408-6.875,12.75-16.232,14.166C834.878,57.176,833.585,57.261,830.869,57.546z"/>
	<path fill="#DDDDDD" stroke="#DDDDDD" stroke-miterlimit="10" d="M1428.802,47.419c0,12.496-0.09,24.994,0.063,37.488
		c0.037,3.059-0.484,4.413-3.988,4.259c-6.818-0.299-13.666-0.293-20.486-0.002c-3.459,0.148-4.096-1.126-4.02-4.233
		c0.193-8.159-0.051-16.33,0.127-24.49c0.063-3.01-0.783-4.041-3.916-4.009c-14.828,0.149-29.658,0.154-44.486,0
		c-3.342-0.035-4.217,1.069-4.131,4.304c0.221,8.325-0.016,16.662,0.127,24.99c0.043,2.53-0.547,3.487-3.273,3.416
		c-7.158-0.188-14.328-0.138-21.492-0.021c-2.387,0.039-3.563-0.335-3.551-3.19c0.104-25.992,0.082-51.985,0.023-77.977
		c-0.006-2.132,0.59-2.9,2.813-2.864c7.494,0.12,14.996,0.151,22.49-0.012c2.584-0.057,3.006,0.997,2.977,3.232
		c-0.105,7.663,0.055,15.33-0.09,22.992c-0.053,2.722,0.633,3.801,3.592,3.775c15.162-0.134,30.324-0.12,45.484-0.007
		c2.666,0.02,3.449-0.888,3.41-3.436c-0.113-7.496,0.145-15.002-0.123-22.49c-0.119-3.391,1.023-4.183,4.203-4.078
		c6.824,0.225,13.668,0.248,20.488-0.012c3.143-0.119,3.877,0.821,3.834,3.876C1428.699,21.758,1428.802,34.59,1428.802,47.419z"/>
	<path fill="#DDDDDD" stroke="#DDDDDD" stroke-miterlimit="10" d="M1254.792,89.038c-10.158,0.007-20.316,0.112-30.473-0.031
		c-6.336-0.09-12.07-2.063-16.678-6.641c-3.066-3.047-4.83-6.698-4.836-11.083c-0.018-11.824,0.025-23.646-0.063-35.469
		c-0.018-2.13,0.691-3.82,1.822-5.517c4.785-7.179,9.578-14.353,14.217-21.626c1.262-1.98,2.645-3.4,5.057-3.384
		c21.959,0.147,43.961-1.365,65.861,0.78c11.734,1.149,17.391,8.323,17.498,20.113c0.1,10.819,0.1,10.819-10.783,10.819
		c-4.662,0-9.334-0.162-13.984,0.06c-2.834,0.136-4.096-0.781-3.531-3.59c1.154-5.751-1.518-6.698-6.721-6.53
		c-12.475,0.403-24.975,0.231-37.461,0.058c-3.053-0.042-3.959,0.726-3.9,3.857c0.203,10.82,0.176,21.647,0.014,32.469
		c-0.043,2.908,0.473,4.026,3.746,3.977c13.482-0.206,26.977-0.23,40.461,0.01c3.607,0.064,3.951-1.377,3.902-4.318
		c-0.113-6.945,0.01-6.948,7.113-6.948c5.496,0,11.002,0.207,16.482-0.074c3.52-0.18,5.332,0.515,4.723,4.506
		c-0.322,2.115-0.053,4.321-0.059,6.485c-0.031,13.391-7.959,21.707-21.438,22.025C1275.445,89.227,1265.117,89.031,1254.792,89.038
		z"/>
	<path fill="#DDDDDD" stroke="#DDDDDD" stroke-miterlimit="10" d="M693.502,89.08c-13.486,0-26.974-0.103-40.458,0.074
		c-3.245,0.043-4.185-0.824-4.156-4.124c0.161-18.48,0.096-36.962,0.056-55.443c-0.006-2.234,0.445-4.085,1.86-5.974
		c3.783-5.044,7.359-10.253,10.82-15.525c1.418-2.161,2.948-3.04,5.632-3.024c22.311,0.126,44.622,0.135,66.933-0.003
		c3.068-0.019,4.129,0.729,3.865,3.854c-0.5,5.911,0.623,11.889-0.615,17.786c-5.791,0.123-11.584,0.327-17.377,0.351
		c-12.988,0.054-25.98,0.202-38.958-0.087c-4.334-0.097-3.959,2.263-3.818,4.988c0.135,2.599-1.133,5.722,3.78,5.592
		c10.98-0.29,21.977,0.016,32.963-0.156c3.186-0.05,4.518,0.707,4.229,4.134c-0.309,3.637-0.316,7.342,0.002,10.977
		c0.293,3.328-1.127,3.776-3.994,3.737c-10.986-0.148-21.983,0.183-32.962-0.165c-5.249-0.166-3.908,3.146-4.004,5.885
		c-0.096,2.743-0.825,5.443,3.917,5.368c17.479-0.279,34.964-0.013,52.445-0.194c3.471-0.036,4.668,0.821,4.418,4.377
		c-0.316,4.473-0.275,8.998-0.01,13.477c0.193,3.245-0.791,4.221-4.109,4.175C720.476,88.969,706.989,89.08,693.502,89.08z"/>
	<path fill="#DDDDDD" stroke="#DDDDDD" stroke-miterlimit="10" d="M1119.527,89.079c-10.072,0-19.236-0.12-28.395,0.071
		c-2.852,0.06-4.037-1.37-5.375-3.466c-10.709-16.79-21.521-33.515-32.299-50.251c-1.775,0.488-2.223,2.039-3.012,3.251
		c-10.133,15.595-20.313,31.159-30.307,46.842c-1.605,2.519-3.215,3.705-6.309,3.628c-8.646-0.214-17.299-0.074-25.939-0.074
		c-0.404-1.761,0.859-2.634,1.541-3.65c17.109-25.527,34.313-50.991,51.357-76.559c1.854-2.78,3.768-4.1,7.17-3.797
		c5.596,0.5,12.145-1.912,16.598,0.905c4.229,2.672,6.355,8.686,9.361,13.26c14.219,21.651,28.424,43.312,42.625,64.975
		C1117.427,85.559,1118.228,86.955,1119.527,89.079z"/>
	<path fill="#DDDDDD" stroke="#DDDDDD" stroke-miterlimit="10" d="M522.502,5.135c10.382,0,19.873,0.14,29.354-0.09
		c2.609-0.063,3.395,1.372,4.442,3.075c9.043,14.69,18.104,29.369,27.191,44.032c0.848,1.367,1.354,3.045,3.246,4.009
		c9.827-15.631,19.739-31.14,29.323-46.847c2.02-3.311,4.177-4.397,7.928-4.27c8.439,0.287,16.896,0.09,26.087,0.09
		c-7.123,10.871-13.894,21.229-20.689,31.569c-10.76,16.371-21.588,32.697-32.25,49.133c-1.535,2.366-3.251,2.949-5.959,3.38
		c-11.563,1.842-18.295-2.581-24.245-12.974c-13.012-22.73-27.749-44.474-41.773-66.625C524.38,8.392,523.675,7.121,522.502,5.135z"
		/>
	<path fill="#DDDDDD" stroke="#DDDDDD" stroke-miterlimit="10" d="M1206.773,5.135c-4.799,7.242-9.176,13.667-13.33,20.236
		c-1.152,1.824-2.635,1.688-4.256,1.69c-7.162,0.013-14.338,0.223-21.486-0.083c-3.719-0.158-4.783,0.842-4.736,4.652
		c0.217,17.658-0.039,35.321,0.201,52.979c0.053,3.872-1.082,4.73-4.709,4.555c-6.316-0.304-12.67-0.313-18.984,0.003
		c-3.689,0.184-4.764-0.792-4.715-4.615c0.225-17.658-0.031-35.321,0.201-52.978c0.051-3.87-1.1-4.696-4.74-4.595
		c-9.488,0.262-18.994-0.052-28.486,0.167c-3.148,0.072-4.057-0.857-3.807-3.914c0.484-5.917-0.594-11.895,0.586-17.8
		c5.801-0.1,11.602-0.278,17.402-0.284C1145.898,5.12,1175.886,5.135,1206.773,5.135z"/>
</g>
<g>
	<path fill="#DDDDDD" stroke="#DDDDDD" stroke-miterlimit="10" d="M326.677,259.654h-47.386v-97.008L199.775,4.695h52.254
		l51.604,111.432L356.537,4.695h49.657l-79.518,157.952V259.654z"/>
	<g>
		<g>
			<polygon fill="#DDDDDD" stroke="#DDDDDD" stroke-miterlimit="10" points="184.781,5.964 120.837,119.711 54.952,2.51 6.269,2.51 
				6.269,257.468 51.382,257.468 51.382,83.649 107.206,182.82 130.574,182.82 187.047,82.567 187.047,257.468 234.433,257.468 
				234.433,104.593 			"/>
		</g>
	</g>
</g>
</svg>
