<?xml version="1.0" encoding="utf-8"?>
<!-- Generator: Adobe Illustrator 16.0.0, SVG Export Plug-In . SVG Version: 6.00 Build 0)  -->
<!DOCTYPE svg PUBLIC "-//W3C//DTD SVG 1.1//EN" "http://www.w3.org/Graphics/SVG/1.1/DTD/svg11.dtd">
<svg version="1.1" id="BasicLogo_xA0_Image_1_" xmlns="http://www.w3.org/2000/svg" xmlns:xlink="http://www.w3.org/1999/xlink"
	 x="0px" y="0px" width="1432.511px" height="262.16px" viewBox="0 0 1432.511 262.16" enable-background="new 0 0 1432.511 262.16"
	 xml:space="preserve">
<g>
	<path fill-rule="evenodd" clip-rule="evenodd" fill="#ED9E35" d="M1084.011,131.022c-7.1,10.234-13.624,19.458-19.915,28.838
		c-1.579,2.354-3.597,1.983-5.691,1.984c-30.661,0.015-61.323,0.099-91.983-0.09c-4.319-0.027-5.629,0.956-5.556,5.459
		c0.289,17.492,0.203,34.993,0.045,52.488c-0.031,3.409,0.791,4.565,4.394,4.542c24.495-0.154,48.992-0.139,73.486-0.012
		c3.275,0.017,4.178-0.938,4.2-4.196c0.093-13.635,0.202-13.634-13.418-13.634c-12.165,0-24.329,0.018-36.494-0.028
		c-1.242-0.004-2.925,0.655-3.625-0.768c-0.702-1.425,0.879-2.372,1.582-3.401c5.157-7.555,10.483-14.995,15.556-22.606
		c1.381-2.074,2.892-2.812,5.306-2.805c22.662,0.068,45.325,0.093,67.988-0.019c3.161-0.016,4.35,0.773,4.311,4.148
		c-0.183,15.328,0.064,30.663-0.183,45.99c-0.299,18.459-9.403,28.409-27.833,28.875c-36.313,0.917-72.645,0.604-108.968,0.115
		c-6.578-0.088-12.497-1.749-15.385-8.635c-0.252-0.603-0.646-1.186-1.099-1.658c-10.373-10.824-12.983-23.721-12.018-38.408
		c1.026-15.599,0.16-31.313,0.384-46.974c0.242-16.897,7.706-25.397,24.117-28.392c3.979-0.726,7.942-0.848,11.928-0.85
		c32.828-0.016,65.656,0.018,98.483,0.034C1063.416,131.026,1073.21,131.022,1084.011,131.022z"/>
	<path fill-rule="evenodd" clip-rule="evenodd" fill="#ED9E35" d="M712.611,223.766c-7.649,11.03-14.567,20.941-21.391,30.916
		c-1.086,1.588-2.514,1.359-3.962,1.36c-39.479,0.012-78.957-0.013-118.436,0.058c-2.717,0.005-3.785-0.637-3.778-3.592
		c0.086-39.312,0.087-78.624-0.001-117.936c-0.007-2.977,1.097-3.573,3.794-3.569c41.811,0.067,83.622,0.08,125.432-0.016
		c3.241-0.007,3.879,1.265,3.825,4.13c-0.146,7.659-0.276,15.333,0.042,22.982c0.17,4.081-0.915,5.358-5.175,5.325
		c-26.484-0.2-52.972,0.014-79.456-0.21c-4.6-0.038-5.919,1.194-5.765,5.786c0.338,10.031,0.091,10.04,10.307,10.04
		c15.325,0,30.652,0.15,45.973-0.102c4.058-0.066,5.09,1.193,4.905,5.044c-0.304,6.315-0.241,12.661-0.017,18.984
		c0.115,3.248-0.87,4.261-4.19,4.231c-17.323-0.157-34.649,0.048-51.97-0.165c-3.941-0.048-5.054,1.041-4.994,4.986
		c0.181,11.743,0.007,11.745,11.672,11.745c28.817,0,57.635,0,86.453,0C707.69,223.766,709.501,223.766,712.611,223.766z"/>
	<path fill-rule="evenodd" clip-rule="evenodd" fill="#ED9E35" d="M1362.114,256.043c-20.83,0-41.661-0.099-62.489,0.091
		c-3.775,0.034-4.716-1.017-4.702-4.738c0.137-38.66,0.13-77.321,0.008-115.982c-0.012-3.528,1.003-4.446,4.476-4.437
		c41.66,0.113,83.321,0.108,124.98,0.005c3.251-0.009,4.362,0.838,4.265,4.166c-0.22,7.492-0.263,15.003,0.015,22.491
		c0.136,3.649-1.198,4.371-4.56,4.356c-28.162-0.121-56.325,0.017-84.487-0.159c-4.32-0.026-6.106,0.745-5.866,5.598
		c0.431,8.72,0.107,8.735,8.623,8.735c13.997,0,27.996,0.095,41.993-0.069c3.318-0.038,4.755,0.61,4.604,4.323
		c-0.292,7.153-0.262,14.333-0.01,21.49c0.123,3.492-0.945,4.524-4.458,4.482c-15.162-0.182-30.33,0.078-45.491-0.178
		c-4.199-0.071-5.302,1.16-5.232,5.277c0.215,12.665,0.045,12.668,12.667,12.668c26.162,0,52.326,0.078,78.487-0.085
		c3.848-0.024,5.217,0.856,5.031,4.918c-0.341,7.483-0.323,15.003-0.005,22.488c0.167,3.925-1.266,4.663-4.858,4.636
		C1404.109,255.963,1383.112,256.043,1362.114,256.043z"/>
	<path fill-rule="evenodd" clip-rule="evenodd" fill="#ED9E35" d="M1189.354,256.044c-14.992,0.005-29.983-0.046-44.975,0.034
		c-4.692,0.024-9.335-0.394-13.866-1.437c-12.804-2.947-19.401-11.811-19.551-26.919c-0.227-22.818-0.094-45.641-0.109-68.461
		c-0.006-7.995,0.132-15.994-0.065-23.985c-0.079-3.208,0.813-4.365,4.173-4.301c10.157,0.197,20.327,0.265,30.479-0.025
		c3.986-0.113,4.606,1.394,4.59,4.916c-0.129,27.485,0.021,54.97-0.167,82.454c-0.03,4.385,0.865,5.903,5.634,5.845
		c22.651-0.278,45.308-0.222,67.96-0.033c4.046,0.033,5.354-0.911,5.323-5.168c-0.195-27.65-0.032-55.302-0.18-82.953
		c-0.02-3.777,0.781-5.193,4.879-5.065c9.985,0.312,19.989,0.226,29.979,0.032c3.382-0.065,4.608,0.775,4.591,4.401
		c-0.147,30.315,0.053,60.634-0.165,90.949c-0.141,19.74-9.267,28.78-29.061,29.604c-0.831,0.034-1.663,0.104-2.495,0.104
		C1220.67,256.042,1205.013,256.041,1189.354,256.044z"/>
	<path fill-rule="evenodd" clip-rule="evenodd" fill="#ED9E35" d="M714.048,256.053c9.903-14.686,19.278-28.564,28.627-42.461
		c17.634-26.214,35.305-52.403,52.804-78.708c1.903-2.86,3.868-4.005,7.267-3.907c7.991,0.229,15.993,0.133,23.989,0.037
		c2.341-0.027,3.904,0.553,5.292,2.68c26.175,40.093,52.441,80.127,78.678,120.181c0.264,0.402,0.389,0.896,0.604,1.408
		c-0.961,1.413-2.416,0.728-3.593,0.733c-12.995,0.059-25.992-0.073-38.984,0.118c-3.079,0.045-4.776-1.028-6.37-3.531
		c-15.456-24.252-31.025-48.433-46.552-72.64c-3.215-5.014-3.199-5.028-6.53,0.113c-15.636,24.139-31.311,48.252-46.841,72.459
		c-1.621,2.526-3.248,3.631-6.326,3.592C742.46,255.956,728.804,256.053,714.048,256.053z"/>
	<path fill-rule="evenodd" clip-rule="evenodd" fill="#ED9E35" d="M479.425,256.093c-20.479,0-40.958-0.091-61.435,0.083
		c-3.675,0.031-4.81-0.863-4.795-4.685c0.143-38.626,0.128-77.252,0.016-115.878c-0.01-3.413,0.788-4.607,4.387-4.522
		c10.15,0.24,20.314,0.254,30.464-0.003c3.847-0.098,5.062,0.864,5.034,4.908c-0.188,27.304,0.075,54.61-0.243,81.912
		c-0.063,5.449,1.66,6.41,6.63,6.366c26.637-0.235,53.278,0.035,79.914-0.241c5.016-0.053,6.165,1.476,5.9,6.146
		c-0.396,6.971-0.312,13.988-0.02,20.969c0.16,3.851-0.886,5.083-4.917,5.041C520.05,255.979,499.737,256.093,479.425,256.093z"/>
	<path fill-rule="evenodd" clip-rule="evenodd" fill="#1F2123" d="M932.579,47.678c-2.598,5.706-5.182,11.344-7.736,16.995
		c-3.204,7.085-6.502,14.131-9.507,21.299c-1,2.383-2.255,3.28-4.808,3.157c-4.982-0.239-10.961,1.462-14.676-0.749
		c-3.389-2.018-4.399-8.117-6.334-12.472c-9.741-21.919-19.454-43.851-29.122-65.802c-0.647-1.469-1.75-2.849-1.496-4.969
		c8.926,0,17.876,0.074,26.823-0.045c2.608-0.035,2.786,1.868,3.461,3.464c5.395,12.762,10.771,25.532,16.578,39.306
		c2.987-6.637,5.627-12.428,8.204-18.247c3.148-7.105,6.352-14.189,9.301-21.376c0.979-2.389,2.26-3.264,4.814-3.154
		c5.152,0.222,11.175-1.489,15.239,0.645c4.082,2.143,4.668,8.725,6.759,13.372c4.191,9.315,8.307,18.664,12.686,28.522
		c2.481-2.588,3.054-5.527,4.166-8.091c4.471-10.317,8.842-20.68,13.037-31.111c1.021-2.54,2.259-3.443,5.04-3.361
		c7.631,0.225,15.273,0.077,23.569,0.077c-3.908,8.921-7.617,17.37-11.312,25.825c-7.883,18.039-15.822,36.053-23.571,54.149
		c-1.297,3.026-3.048,3.634-6.225,4.156c-11.808,1.935-18.492-2.105-21.899-14.017c-2.657-9.29-7.695-17.899-11.7-26.799
		C933.771,48.227,933.372,48.139,932.579,47.678z"/>
	<path fill-rule="evenodd" clip-rule="evenodd" fill="#1F2123" d="M434.278,88.98c7.215-7.164,13.634-13.436,19.913-19.845
		c1.57-1.604,3.232-1.97,5.331-1.956c10.824,0.072,21.651-0.074,32.473,0.102c3.065,0.05,3.962-0.805,3.907-3.908
		c-0.192-10.821-0.189-21.649-0.002-32.471c0.054-3.113-0.878-3.931-3.935-3.902c-15.486,0.147-30.977,0.197-46.461-0.025
		c-3.762-0.055-4.312,1.34-4.26,4.609c0.178,11.155-0.022,22.315,0.129,33.471c0.04,2.897-0.777,4.999-2.888,6.978
		c-4.127,3.87-8.176,7.847-11.964,12.044c-2.047,2.269-3.614,2.144-5.886,0.514c-4.972-3.565-7.493-8.399-7.535-14.388
		c-0.107-15.32-0.103-30.642-0.012-45.963c0.054-9.083,5.778-15.904,14.967-17.958c2.747-0.614,5.596-1.062,8.4-1.073
		c21.316-0.091,42.632-0.099,63.948-0.029c6.392,0.021,11.005,2.189,15.152,8.075c6.354,9.019,9.554,18.048,8.59,29.064
		c-0.723,8.264-0.532,16.663-0.057,24.962c0.832,14.5-9.41,21.198-19.742,21.494C481.428,89.434,458.476,88.98,434.278,88.98z"/>
	<path fill-rule="evenodd" clip-rule="evenodd" fill="#1F2123" d="M830.868,57.546c12.381,10.81,23.748,20.735,35.19,30.726
		c-1.28,1.45-2.859,0.742-4.212,0.769c-4.997,0.1-10.109-0.636-14.974,0.168c-13.838,2.288-24.272-2.884-33.296-12.985
		c-4.632-5.186-10.087-9.723-15.589-14.016c-3.94-3.073-5.34-6.464-5.152-11.397c0.373-9.785,0.11-9.795,9.943-9.795
		c5.999,0,12.001-0.139,17.993,0.058c3.047,0.101,4.352-0.479,4.338-4c-0.042-10.686,0.131-10.687-10.661-10.687
		c-10.164,0-20.333,0.188-30.489-0.095c-3.901-0.109-4.688,1.226-4.652,4.839c0.174,17.66-0.084,35.326,0.196,52.983
		c0.068,4.318-1.219,5.277-5.255,5.06c-6.479-0.35-12.999-0.278-19.486-0.016c-3.19,0.13-3.825-0.932-3.811-3.933
		c0.121-25.493,0.107-50.987,0.013-76.479c-0.01-2.702,0.542-3.692,3.497-3.678c25.492,0.124,50.986,0.05,76.479,0.121
		c3.654,0.011,7.292,0.627,10.729,1.972c6.237,2.441,10.315,6.741,10.578,13.685c0.276,7.317,0.513,14.667,0.142,21.971
		c-0.376,7.408-6.876,12.75-16.234,14.166C834.878,57.176,833.585,57.261,830.868,57.546z"/>
	<path fill-rule="evenodd" clip-rule="evenodd" fill="#1F2123" d="M1428.802,47.419c0,12.496-0.089,24.994,0.063,37.488
		c0.037,3.059-0.485,4.413-3.988,4.259c-6.818-0.299-13.667-0.293-20.486-0.002c-3.459,0.148-4.096-1.126-4.021-4.233
		c0.195-8.159-0.051-16.33,0.127-24.49c0.064-3.01-0.782-4.041-3.916-4.009c-14.827,0.149-29.658,0.154-44.485,0
		c-3.343-0.035-4.218,1.069-4.132,4.304c0.222,8.325-0.016,16.662,0.127,24.99c0.044,2.53-0.547,3.487-3.273,3.416
		c-7.159-0.188-14.328-0.138-21.492-0.021c-2.387,0.039-3.563-0.335-3.551-3.19c0.104-25.992,0.081-51.985,0.023-77.977
		c-0.005-2.132,0.591-2.9,2.813-2.864c7.495,0.12,14.997,0.151,22.491-0.012c2.584-0.057,3.005,0.997,2.975,3.232
		c-0.104,7.663,0.056,15.33-0.09,22.992c-0.052,2.722,0.633,3.801,3.593,3.775c15.161-0.134,30.324-0.12,45.485-0.007
		c2.666,0.02,3.449-0.888,3.41-3.436c-0.115-7.496,0.144-15.002-0.123-22.49c-0.119-3.391,1.022-4.183,4.203-4.078
		c6.823,0.225,13.667,0.248,20.488-0.012c3.143-0.119,3.876,0.821,3.834,3.876C1428.699,21.758,1428.802,34.59,1428.802,47.419z"/>
	<path fill-rule="evenodd" clip-rule="evenodd" fill="#1F2123" d="M1254.792,89.038c-10.157,0.007-20.316,0.112-30.473-0.031
		c-6.335-0.09-12.069-2.063-16.677-6.641c-3.066-3.047-4.829-6.698-4.836-11.083c-0.017-11.824,0.026-23.646-0.062-35.469
		c-0.017-2.13,0.691-3.82,1.823-5.517c4.784-7.179,9.578-14.353,14.215-21.626c1.262-1.98,2.646-3.4,5.057-3.384
		c21.959,0.147,43.961-1.365,65.862,0.78c11.735,1.149,17.39,8.323,17.498,20.113c0.1,10.819,0.1,10.819-10.784,10.819
		c-4.662,0-9.333-0.162-13.984,0.06c-2.834,0.136-4.096-0.781-3.531-3.59c1.154-5.751-1.517-6.698-6.72-6.53
		c-12.476,0.403-24.976,0.231-37.462,0.058c-3.053-0.042-3.959,0.726-3.9,3.857c0.203,10.82,0.176,21.647,0.014,32.469
		c-0.043,2.908,0.472,4.026,3.745,3.977c13.484-0.206,26.978-0.23,40.462,0.01c3.607,0.064,3.95-1.377,3.902-4.318
		c-0.114-6.945,0.009-6.948,7.114-6.948c5.496,0,11.002,0.207,16.482-0.074c3.52-0.18,5.331,0.515,4.723,4.506
		c-0.323,2.115-0.054,4.321-0.059,6.485c-0.031,13.391-7.96,21.707-21.438,22.025C1275.445,89.227,1265.116,89.031,1254.792,89.038z
		"/>
	<path fill-rule="evenodd" clip-rule="evenodd" fill="#1F2123" d="M693.502,89.08c-13.486,0-26.974-0.103-40.458,0.074
		c-3.245,0.043-4.185-0.824-4.156-4.124c0.161-18.48,0.095-36.962,0.055-55.443c-0.005-2.234,0.446-4.085,1.861-5.974
		c3.783-5.044,7.359-10.253,10.82-15.525c1.418-2.161,2.948-3.04,5.632-3.024c22.31,0.126,44.622,0.135,66.932-0.003
		c3.069-0.019,4.13,0.729,3.866,3.854c-0.5,5.911,0.623,11.889-0.615,17.786c-5.792,0.123-11.585,0.327-17.378,0.351
		c-12.987,0.054-25.979,0.202-38.958-0.087c-4.334-0.097-3.959,2.263-3.818,4.988c0.135,2.599-1.133,5.722,3.78,5.592
		c10.981-0.29,21.977,0.016,32.963-0.156c3.186-0.05,4.519,0.707,4.229,4.134c-0.308,3.637-0.316,7.342,0.003,10.977
		c0.292,3.328-1.127,3.776-3.994,3.737c-10.987-0.148-21.984,0.183-32.962-0.165c-5.249-0.166-3.909,3.146-4.004,5.885
		c-0.096,2.743-0.826,5.443,3.917,5.368c17.478-0.279,34.964-0.013,52.444-0.194c3.472-0.036,4.669,0.821,4.418,4.377
		c-0.315,4.473-0.275,8.998-0.009,13.477c0.193,3.245-0.792,4.221-4.11,4.175C720.477,88.969,706.989,89.08,693.502,89.08z"/>
	<path fill-rule="evenodd" clip-rule="evenodd" fill="#1F2123" d="M1119.526,89.079c-10.072,0-19.236-0.12-28.394,0.071
		c-2.851,0.06-4.037-1.37-5.375-3.466c-10.709-16.79-21.522-33.515-32.299-50.251c-1.775,0.488-2.223,2.039-3.011,3.251
		c-10.133,15.595-20.312,31.159-30.307,46.842c-1.606,2.519-3.215,3.705-6.309,3.628c-8.645-0.214-17.299-0.074-25.938-0.074
		c-0.406-1.761,0.859-2.634,1.541-3.65c17.108-25.527,34.311-50.991,51.356-76.559c1.854-2.78,3.769-4.1,7.17-3.797
		c5.597,0.5,12.144-1.912,16.599,0.905c4.227,2.672,6.355,8.686,9.36,13.26c14.22,21.651,28.425,43.312,42.626,64.975
		C1117.428,85.559,1118.229,86.955,1119.526,89.079z"/>
	<path fill-rule="evenodd" clip-rule="evenodd" fill="#1F2123" d="M522.502,5.135c10.382,0,19.873,0.14,29.353-0.09
		c2.61-0.063,3.395,1.372,4.443,3.075c9.043,14.69,18.104,29.369,27.191,44.032c0.848,1.367,1.355,3.045,3.246,4.009
		c9.828-15.631,19.74-31.14,29.324-46.847c2.019-3.311,4.176-4.397,7.927-4.27c8.44,0.287,16.897,0.09,26.087,0.09
		c-7.123,10.871-13.893,21.229-20.689,31.569c-10.76,16.371-21.588,32.697-32.25,49.133c-1.535,2.366-3.251,2.949-5.959,3.38
		c-11.563,1.842-18.295-2.581-24.245-12.974c-13.012-22.73-27.749-44.474-41.774-66.625C524.38,8.392,523.675,7.121,522.502,5.135z"
		/>
	<path fill-rule="evenodd" clip-rule="evenodd" fill="#1F2123" d="M1206.773,5.135c-4.798,7.242-9.176,13.667-13.33,20.236
		c-1.152,1.824-2.634,1.688-4.255,1.69c-7.164,0.013-14.338,0.223-21.488-0.083c-3.717-0.158-4.782,0.842-4.735,4.652
		c0.216,17.658-0.039,35.321,0.2,52.979c0.053,3.872-1.081,4.73-4.708,4.555c-6.316-0.304-12.67-0.313-18.985,0.003
		c-3.69,0.184-4.763-0.792-4.714-4.615c0.224-17.658-0.031-35.321,0.2-52.978c0.051-3.87-1.098-4.696-4.739-4.595
		c-9.489,0.262-18.994-0.052-28.486,0.167c-3.149,0.072-4.057-0.857-3.807-3.914c0.484-5.917-0.594-11.895,0.586-17.8
		c5.8-0.1,11.601-0.278,17.401-0.284C1145.898,5.12,1175.886,5.135,1206.773,5.135z"/>
</g>
<g>
	<path fill="#1F2123" d="M326.677,259.654h-47.386v-97.008L199.775,4.695h52.254l51.604,111.432L356.537,4.695h49.657
		l-79.517,157.951V259.654z"/>
	<g>
		<g>
			<polygon fill="#1F2123" points="184.781,5.964 120.837,119.711 54.952,2.51 6.269,2.51 6.269,257.468 51.382,257.468 
				51.382,83.649 107.206,182.82 130.574,182.82 187.047,82.567 187.047,257.468 234.433,257.468 234.433,104.593 			"/>
		</g>
	</g>
</g>
</svg>
